<svg width="18" height="18" xmlns="http://www.w3.org/2000/svg" xml:space="preserve" version="1.1">

 <g>
  <title>Layer 1</title>
  <path id="svg_5" d="m13.51603,9.83061c-1.29,0.41 -2.63,0.08 -2.62,-1.65c0,-2.64 6.19,-4.85 7.05,-7.15c0.21,-0.57 0.23,-1.05 -0.05,-1.03c-0.2,0.01 -0.04,0.3 -0.48,0.73c-2.56,2.57 -6.86,2.56 -10.16,4.04c-2.16,0.97 -8.5,3.95 -7.04,10.6c0.07,0.32 0.26,1.37 0.45,1.37c0.22,0 0.22,-0.63 0.22,-1.39c-0.05,-3.96 4.64,-5.06 6.17,-7.65c0.18,-0.31 0.5,-0.74 0.57,-0.54c0.04,0.1 0.01,0.24 -0.05,0.52c-0.48,2.13 -2.7,3.49 -2.07,5.01c0.82,1.97 3.17,0.5 3.9,-0.77c0.19,-0.35 0.3,-0.57 0.43,-0.53c0.1,0.03 0.09,0.43 0.03,0.79c-0.39,2.29 -0.91,3.57 -2.59,4.88c-0.54,0.42 -1.38,0.5 -1.27,0.82c0.03,0.08 0.39,0.07 0.68,0.04c4.46,-0.29 8.19,-5.54 9.18,-8.98c0.1,-0.24 0.13,-0.47 0.03,-0.55c-0.13,-0.1 -0.33,0.13 -0.53,0.31c-0.51,0.46 -1.21,0.93 -1.85,1.13z"/>
 </g>
</svg>